{
  "accessors": [
    {
      "bufferView": 2,
      "componentType": 5126,
      "count": 3858,
      "max": [
        0.74352997541427612,
        0.063270002603530884,
        1.3075400590896606
      ],
      "min": [
        -0.74352997541427612,
        -0.063270002603530884,
        1.1825499534606934
      ],
      "type": "VEC3"
    },
    {
      "bufferView": 2,
      "byteOffset": 46296,
      "componentType": 5126,
      "count": 3858,
      "max": [
        0.99999994039535522,
        0.99999994039535522,
        1
      ],
      "min": [
        -0.99999994039535522,
        -0.99999994039535522,
        -0.99999910593032837
      ],
      "type": "VEC3"
    },
    {
      "bufferView": 3,
      "componentType": 5126,
      "count": 3858,
      "max": [
        0.99999994039535522,
        0.99997615814208984,
        0.99996882677078247,
        1
      ],
      "min": [
        -0.99999767541885376,
        -0.99998104572296143,
        -0.99999511241912842,
        -1
      ],
      "type": "VEC4"
    },
    {
      "bufferView": 1,
      "componentType": 5126,
      "count": 3858,
      "max": [
        0.99994999170303345,
        0.99989998340606689
      ],
      "min": [
        0,
        0
      ],
      "type": "VEC2"
    },
    {
      "bufferView": 0,
      "componentType": 5125,
      "count": 11208,
      "max": [
        3857
      ],
      "min": [
        0
      ],
      "type": "SCALAR"
    },
    {
      "bufferView": 2,
      "byteOffset": 92592,
      "componentType": 5126,
      "count": 10864,
      "max": [
        0.57033997774124146,
        0.052560001611709595,
        1.2958600521087646
      ],
      "min": [
        -0.57033997774124146,
        -0.052560001611709595,
        1.190060019493103
      ],
      "type": "VEC3"
    },
    {
      "bufferView": 2,
      "byteOffset": 222960,
      "componentType": 5126,
      "count": 10864,
      "max": [
        0.99848860502243042,
        1,
        1
      ],
      "min": [
        -0.99848860502243042,
        -1,
        -1
      ],
      "type": "VEC3"
    },
    {
      "bufferView": 3,
      "byteOffset": 61728,
      "componentType": 5126,
      "count": 10864,
      "max": [
        1,
        0.99999403953552246,
        0.99811851978302002,
        1
      ],
      "min": [
        -1,
        -0.99827200174331665,
        -0.99561762809753418,
        -1
      ],
      "type": "VEC4"
    },
    {
      "bufferView": 1,
      "byteOffset": 30864,
      "componentType": 5126,
      "count": 10864,
      "max": [
        1.287350058555603,
        0.96183997392654419
      ],
      "min": [
        -0.2912600040435791,
        0.066430002450942993
      ],
      "type": "VEC2"
    },
    {
      "bufferView": 0,
      "byteOffset": 44832,
      "componentType": 5125,
      "count": 30276,
      "max": [
        10863
      ],
      "min": [
        0
      ],
      "type": "SCALAR"
    },
    {
      "bufferView": 2,
      "byteOffset": 353328,
      "componentType": 5126,
      "count": 172,
      "max": [
        0.57543998956680298,
        0.021460000425577164,
        1.309939980506897
      ],
      "min": [
        -0.57543998956680298,
        -0.021460000425577164,
        1.2944899797439575
      ],
      "type": "VEC3"
    },
    {
      "bufferView": 2,
      "byteOffset": 355392,
      "componentType": 5126,
      "count": 172,
      "max": [
        0.99995559453964233,
        1,
        0.99995499849319458
      ],
      "min": [
        -0.99995559453964233,
        -1,
        -0.0094901425763964653
      ],
      "type": "VEC3"
    },
    {
      "bufferView": 3,
      "byteOffset": 235552,
      "componentType": 5126,
      "count": 172,
      "max": [
        0.99999815225601196,
        0.67471945285797119,
        0.99388980865478516,
        1
      ],
      "min": [
        -0.99999815225601196,
        -0.79775166511535645,
        -0.99421137571334839,
        -1
      ],
      "type": "VEC4"
    },
    {
      "bufferView": 1,
      "byteOffset": 117776,
      "componentType": 5126,
      "count": 172,
      "max": [
        0.99992001056671143,
        0.63769000768661499
      ],
      "min": [
        7.9999997979030013e-05,
        7.9999997979030013e-05
      ],
      "type": "VEC2"
    },
    {
      "bufferView": 0,
      "byteOffset": 165936,
      "componentType": 5125,
      "count": 408,
      "max": [
        171
      ],
      "min": [
        0
      ],
      "type": "SCALAR"
    },
    {
      "bufferView": 2,
      "byteOffset": 357456,
      "componentType": 5126,
      "count": 206,
      "max": [
        3.3043398857116699,
        0.03359999880194664,
        1.2788100242614746
      ],
      "min": [
        -3.3043301105499268,
        -0.03359999880194664,
        1.2108700275421143
      ],
      "type": "VEC3"
    },
    {
      "bufferView": 2,
      "byteOffset": 359928,
      "componentType": 5126,
      "count": 206,
      "max": [
        1,
        1,
        1
      ],
      "min": [
        -1,
        -1,
        -1
      ],
      "type": "VEC3"
    },
    {
      "bufferView": 3,
      "byteOffset": 238304,
      "componentType": 5126,
      "count": 206,
      "max": [
        1,
        0.99446660280227661,
        0.99283504486083984,
        1
      ],
      "min": [
        -1,
        -0.59396666288375854,
        -0.96600121259689331,
        -1
      ],
      "type": "VEC4"
    },
    {
      "bufferView": 0,
      "byteOffset": 167568,
      "componentType": 5125,
      "count": 1056,
      "max": [
        205
      ],
      "min": [
        0
      ],
      "type": "SCALAR"
    }
  ],
  "asset": {
    "extras": {
      "author": "Mathis Proux (https://sketchfab.com/MaMaNo)",
      "license": "CC-BY-4.0 (http://creativecommons.org/licenses/by/4.0/)",
      "source": "https://sketchfab.com/models/b0a48d6e600f44b1949356231a4d8488",
      "title": "Light Saber"
    },
    "generator": "Sketchfab-3.20.7",
    "version": "2.0"
  },
  "bufferViews": [
    {
      "buffer": 0,
      "byteLength": 171792,
      "byteOffset": 0,
      "name": "floatBufferViews",
      "target": 34963
    },
    {
      "buffer": 0,
      "byteLength": 119152,
      "byteOffset": 171792,
      "byteStride": 8,
      "name": "floatBufferViews",
      "target": 34962
    },
    {
      "buffer": 0,
      "byteLength": 362400,
      "byteOffset": 290944,
      "byteStride": 12,
      "name": "floatBufferViews",
      "target": 34962
    },
    {
      "buffer": 0,
      "byteLength": 241600,
      "byteOffset": 653344,
      "byteStride": 16,
      "name": "floatBufferViews",
      "target": 34962
    }
  ],
  "buffers": [
    {
      "byteLength": 894944,
      "uri": "scene.bin"
    }
  ],
  "images": [
    {
      "uri": "textures/metal_baseColor.jpeg"
    },
    {
      "uri": "textures/metal_metallicRoughness.png"
    },
    {
      "uri": "textures/Material_normal.png"
    },
    {
      "uri": "textures/Material_baseColor.jpeg"
    },
    {
      "uri": "textures/Material.002_baseColor.jpeg"
    }
  ],
  "materials": [
    {
      "doubleSided": true,
      "name": "metal",
      "occlusionTexture": {
        "index": 1,
        "strength": 1,
        "texCoord": 0
      },
      "pbrMetallicRoughness": {
        "baseColorFactor": [
          1,
          1,
          1,
          1
        ],
        "baseColorTexture": {
          "index": 0,
          "texCoord": 0
        },
        "metallicFactor": 1,
        "roughnessFactor": 0.14462652440000001
      }
    },
    {
      "doubleSided": true,
      "emissiveFactor": [
        0,
        0,
        0
      ],
      "name": "Material",
      "normalTexture": {
        "index": 2,
        "scale": 1,
        "texCoord": 0
      },
      "pbrMetallicRoughness": {
        "baseColorFactor": [
          1,
          1,
          1,
          1
        ],
        "baseColorTexture": {
          "index": 3,
          "texCoord": 0
        },
        "metallicFactor": 0,
        "roughnessFactor": 0.34927591460000001
      }
    },
    {
      "doubleSided": true,
      "emissiveFactor": [
        0,
        0,
        0
      ],
      "name": "Material.002",
      "pbrMetallicRoughness": {
        "baseColorFactor": [
          1,
          1,
          1,
          1
        ],
        "baseColorTexture": {
          "index": 4,
          "texCoord": 0
        },
        "metallicFactor": 1,
        "roughnessFactor": 0.18121189019999995
      }
    },
    {
      "doubleSided": false,
      "emissiveFactor": [
        1,
        1,
        1
      ],
      "name": "Material.001",
      "pbrMetallicRoughness": {
        "baseColorFactor": [
          0,
          0,
          0,
          1
        ],
        "metallicFactor": 0,
        "roughnessFactor": 1
      }
    }
  ],
  "meshes": [
    {
      "name": "Plane_0",
      "primitives": [
        {
          "attributes": {
            "NORMAL": 1,
            "POSITION": 0,
            "TANGENT": 2,
            "TEXCOORD_0": 3
          },
          "indices": 4,
          "material": 0,
          "mode": 4
        }
      ]
    },
    {
      "name": "Plane_1",
      "primitives": [
        {
          "attributes": {
            "NORMAL": 6,
            "POSITION": 5,
            "TANGENT": 7,
            "TEXCOORD_0": 8
          },
          "indices": 9,
          "material": 1,
          "mode": 4
        }
      ]
    },
    {
      "name": "Plane_2",
      "primitives": [
        {
          "attributes": {
            "NORMAL": 11,
            "POSITION": 10,
            "TANGENT": 12,
            "TEXCOORD_0": 13
          },
          "indices": 14,
          "material": 2,
          "mode": 4
        }
      ]
    },
    {
      "name": "Plane_3",
      "primitives": [
        {
          "attributes": {
            "NORMAL": 16,
            "POSITION": 15,
            "TANGENT": 17
          },
          "indices": 18,
          "material": 3,
          "mode": 4
        }
      ]
    }
  ],
  "nodes": [
    {
      "children": [
        1
      ],
      "name": "RootNode (gltf orientation matrix)",
      "rotation": [
        -0.70710678118654746,
        -0,
        -0,
        0.70710678118654757
      ]
    },
    {
      "children": [
        2
      ],
      "name": "RootNode (model correction matrix)"
    },
    {
      "children": [
        3,
        8
      ],
      "name": "Root"
    },
    {
      "children": [
        4,
        5,
        6,
        7
      ],
      "matrix": [
        2.9847999999999999,
        0,
        0,
        0,
        0,
        2.9847999999999999,
        0,
        0,
        0,
        0,
        2.9847999999999999,
        0,
        0,
        0,
        0,
        1
      ],
      "name": "Plane"
    },
    {
      "mesh": 0,
      "name": "Plane_0"
    },
    {
      "mesh": 1,
      "name": "Plane_1"
    },
    {
      "mesh": 2,
      "name": "Plane_2"
    },
    {
      "mesh": 3,
      "name": "Plane_3"
    },
    {
      "children": [
        9
      ],
      "matrix": [
        1,
        0,
        0,
        0,
        0,
        1,
        0,
        0,
        0,
        0,
        1,
        0,
        0.32804000000000005,
        0.13545000000000001,
        14.238769999999997,
        1
      ],
      "name": "Hemi"
    },
    {
      "name": "Hemi"
    }
  ],
  "samplers": [
    {
      "magFilter": 9729,
      "minFilter": 9987,
      "wrapS": 10497,
      "wrapT": 10497
    }
  ],
  "scene": 0,
  "scenes": [
    {
      "name": "OSG_Scene",
      "nodes": [
        0
      ]
    }
  ],
  "textures": [
    {
      "sampler": 0,
      "source": 0
    },
    {
      "sampler": 0,
      "source": 1
    },
    {
      "sampler": 0,
      "source": 2
    },
    {
      "sampler": 0,
      "source": 3
    },
    {
      "sampler": 0,
      "source": 4
    }
  ]
}

