<?xml version="1.0"?>
<svg xmlns="http://www.w3.org/2000/svg" width="50" height="50" viewBox="0 0 50 50">
    <path d="M 25 2 C 12.318 2 2 12.318 2 25 C 2 37.683 12.318 48 25 48 C 37.683 48 48 37.683 48 25 C 48 12.318 37.683 2 25 2 z M 18.84375 14.96875 L 26.53125 14.96875 C 30.18125 14.96875 32.40625 16.88425 32.40625 19.90625 C 32.40625 21.97025 30.88275 23.81425 28.96875 24.15625 L 28.96875 24.375 C 31.64875 24.689 33.40625 26.55925 33.40625 29.15625 C 33.40625 32.62925 30.8845 34.71875 26.6875 34.71875 L 18.84375 34.71875 L 18.84375 14.96875 z M 21.53125 17.3125 L 21.53125 23.4375 L 25.34375 23.4375 C 28.22675 23.4375 29.71875 22.385 29.71875 20.375 C 29.71875 18.434 28.3155 17.3125 25.9375 17.3125 L 21.53125 17.3125 z M 21.53125 25.65625 L 21.53125 32.375 L 26.25 32.375 C 29.136 32.375 30.625 31.215 30.625 29 C 30.625 26.799 29.07925 25.65625 26.03125 25.65625 L 21.53125 25.65625 z"/>
</svg>
