<?xml version="1.0" encoding="utf-8"?>
<!-- Svg Vector Icons : http://www.onlinewebfonts.com/icon -->
<!DOCTYPE svg PUBLIC "-//W3C//DTD SVG 1.1//EN" "http://www.w3.org/Graphics/SVG/1.1/DTD/svg11.dtd">
<svg version="1.1" xmlns="http://www.w3.org/2000/svg" xmlns:xlink="http://www.w3.org/1999/xlink" x="0px" y="0px" viewBox="0 0 1000 1000" enable-background="new 0 0 1000 1000" xml:space="preserve">
<metadata> Svg Vector Icons : http://www.onlinewebfonts.com/icon </metadata>
<g><g><path d="M342.9,289.5h110.9V544H342.9V289.5z M850.7,195v610.1c0,28.7-23.4,52.1-52.1,52.1H201.4c-28.7,0-52.1-23.4-52.1-52.1V195c0-28.7,23.4-52.1,52.1-52.1h597.3C827.4,142.9,850.7,166.2,850.7,195z M553.9,289.8c0-19.9-10.3-37.3-30.7-52.2c-20.5-15-44-22.5-70.5-22.5H242.4v403.4h210.7c26.2,0,49.6-7.4,70.1-22.3c20.5-14.9,30.7-32.3,30.7-52.4L553.9,289.8L553.9,289.8z M990,95.1v809.8c0,51.7-41.9,93.6-93.6,93.6H103.6c-51.7,0-93.6-41.9-93.6-93.6V95.1c0-51.7,41.9-93.6,93.6-93.6h792.7C948.1,1.5,990,43.4,990,95.1z M887.6,195c0-49.1-39.9-89-89-89H201.4c-49.1,0-89,39.9-89,89v610.1c0,49.1,39.9,89,89,89h597.3c49.1,0,89-39.9,89-89V195z"/></g><g></g><g></g><g></g><g></g><g></g><g></g><g></g><g></g><g></g><g></g><g></g><g></g><g></g><g></g><g></g></g>
</svg>