<?xml version="1.0"?>
<svg xmlns="http://www.w3.org/2000/svg" viewBox="0 0 50 50">
    <path style="text-indent:0;text-align:start;line-height:normal;text-transform:none;block-progression:tb;-inkscape-font-specification:Bitstream Vera Sans" d="M 25 2 C 12.309296 2 2 12.309296 2 25 C 2 37.690704 12.309296 48 25 48 C 37.690704 48 48 37.690704 48 25 C 48 12.309296 37.690704 2 25 2 z M 25 4 C 36.609824 4 46 13.390176 46 25 C 46 36.609824 36.609824 46 25 46 C 13.390176 46 4 36.609824 4 25 C 4 13.390176 13.390176 4 25 4 z M 25 6 C 14.518435 6 6 14.518435 6 25 C 6 35.481565 14.518435 44 25 44 C 35.481565 44 44 35.481565 44 25 C 44 14.518435 35.481565 6 25 6 z M 25 8 C 34.400685 8 42 15.599315 42 25 C 42 34.400685 34.400685 42 25 42 C 15.599315 42 8 34.400685 8 25 C 8 15.599315 15.599315 8 25 8 z M 20.40625 13.84375 L 20.40625 33.5625 L 32.5 33.5625 L 32.5 31.125 L 23.09375 31.125 L 23.09375 13.84375 L 20.40625 13.84375 z" overflow="visible" font-family="Bitstream Vera Sans"/>
</svg>
