<?xml version="1.0"?>
<svg xmlns="http://www.w3.org/2000/svg" width="50" height="50" viewBox="0 0 50 50">
    <path d="M 36.34375 8 C 16.41875 8 7.436 14.53775 4.5 17.34375 C 3.79 18.02175 3.341 18.9395 3.25 19.9375 L 2.03125 33.53125 C 1.92625 34.68925 2.2845 35.8355 3.0625 36.6875 C 3.8205 37.5175 4.91825 38 6.03125 38 L 38.59375 38 C 40.27875 38 41.8 36.9245 42.375 35.3125 C 46.104 24.8285 48 18.8995 48 17.6875 C 48 15.0965 38.87375 8 36.34375 8 z M 15.28125 17.90625 L 17.5625 17.90625 L 17.5625 28.59375 L 23.375 28.59375 L 23.375 30.5625 L 15.28125 30.5625 L 15.28125 17.90625 z M 25.8125 17.90625 L 31.125 17.90625 C 33.533 17.90625 34.96875 19.1115 34.96875 21.0625 C 34.96875 22.3985 33.99375 23.57925 32.71875 23.78125 L 32.71875 23.9375 C 34.42275 24.0955 35.59375 25.31675 35.59375 26.96875 C 35.59375 29.19275 33.957 30.5625 31.25 30.5625 L 25.8125 30.5625 L 25.8125 17.90625 z M 28.09375 19.6875 L 28.09375 23.21875 L 30.28125 23.21875 C 31.88825 23.21875 32.75 22.61175 32.75 21.46875 C 32.75 20.35275 31.9335 19.6875 30.5625 19.6875 L 28.09375 19.6875 z M 28.09375 24.875 L 28.09375 28.78125 L 30.71875 28.78125 C 32.38875 28.78125 33.28125 28.1045 33.28125 26.8125 C 33.28025 25.5465 32.38725 24.875 30.65625 24.875 L 28.09375 24.875 z"/>
</svg>
