<?xml version="1.0"?>
<svg xmlns="http://www.w3.org/2000/svg" viewBox="0 0 50 50">
    <path d="M45.895,41.553c-0.058-0.114-5.7-11.487-5.7-19.18c0-7.771,1.75-14.038,1.768-14.1c0.086-0.302,0.024-0.626-0.164-0.876 C41.608,7.147,41.313,7,41,7H8.912C8.478,7,8.094,7.28,7.96,7.693C7.839,8.067,5,16.925,5,22c0,6.579,3.786,21,15.034,21H45 c0.347,0,0.669-0.18,0.851-0.475C46.033,42.23,46.05,41.862,45.895,41.553z M24.086,32H16V19h2.268v11.014h5.818V32z M34.193,20.959 h-3.91V32h-2.268V20.959h-3.903V19h10.081V20.959z"/>
</svg>
