<?xml version="1.0"?>
<svg xmlns="http://www.w3.org/2000/svg" viewBox="0 0 50 50">
    <path style="text-indent:0;text-align:start;line-height:normal;text-transform:none;block-progression:tb;-inkscape-font-specification:Bitstream Vera Sans" d="M 25 2 C 12.309296 2 2 12.309296 2 25 C 2 37.690704 12.309296 48 25 48 C 37.690704 48 48 37.690704 48 25 C 48 12.309296 37.690704 2 25 2 z M 25 4 C 36.609824 4 46 13.390176 46 25 C 46 36.609824 36.609824 46 25 46 C 13.390176 46 4 36.609824 4 25 C 4 13.390176 13.390176 4 25 4 z M 25 6 C 14.518435 6 6 14.518435 6 25 C 6 35.481565 14.518435 44 25 44 C 35.481565 44 44 35.481565 44 25 C 44 14.518435 35.481565 6 25 6 z M 25 8 C 34.400685 8 42 15.599315 42 25 C 42 34.400685 34.400685 42 25 42 C 15.599315 42 8 34.400685 8 25 C 8 15.599315 15.599315 8 25 8 z M 18.875 14.6875 L 18.875 34.40625 L 21.5625 34.40625 L 21.5625 26.71875 L 26.21875 26.71875 L 30.375 34.40625 L 33.5 34.40625 L 29 26.28125 C 31.447 25.47525 32.90625 23.346 32.90625 20.625 C 32.90625 17.016 30.383 14.6875 26.5 14.6875 L 18.875 14.6875 z M 21.5625 17.0625 L 26.15625 17.0625 C 28.63125 17.0625 30.125 18.43575 30.125 20.71875 C 30.125 23.05675 28.725 24.375 26.25 24.375 L 21.5625 24.375 L 21.5625 17.0625 z" overflow="visible" font-family="Bitstream Vera Sans"/>
</svg>
