<?xml version="1.0"?>
<svg xmlns="http://www.w3.org/2000/svg" width="50" height="50" viewBox="0 0 50 50">
    <path d="M 13.65625 8 C 11.12625 8 2 15.0965 2 17.6875 C 2 18.9015 3.895 24.8305 7.625 35.3125 C 8.199 36.9245 9.72025 38 11.40625 38 L 43.96875 38 C 45.08175 38 46.1805 37.5175 46.9375 36.6875 C 47.7155 35.8345 48.07375 34.68825 47.96875 33.53125 L 46.75 19.9375 C 46.66 18.9395 46.21 18.02175 45.5 17.34375 C 42.563 14.53775 33.58225 8 13.65625 8 z M 14.4375 17.90625 L 19.59375 17.90625 C 22.25675 17.90625 23.9375 19.40875 23.9375 21.84375 C 23.9375 23.51375 23.04325 24.92375 21.53125 25.46875 L 24.3125 30.5625 L 21.71875 30.5625 L 19.21875 25.8125 L 16.71875 25.8125 L 16.71875 30.5625 L 14.4375 30.5625 L 14.4375 17.90625 z M 26.6875 17.90625 L 31.96875 17.90625 C 34.37575 17.90625 35.84375 19.1115 35.84375 21.0625 C 35.84375 22.3985 34.8385 23.57925 33.5625 23.78125 L 33.5625 23.9375 C 35.2675 24.0955 36.46875 25.31575 36.46875 26.96875 C 36.46875 29.19175 34.79975 30.5625 32.09375 30.5625 L 26.6875 30.5625 L 26.6875 17.90625 z M 28.9375 19.6875 L 28.9375 23.21875 L 31.125 23.21875 C 32.732 23.21875 33.59375 22.61175 33.59375 21.46875 C 33.59375 20.35275 32.77725 19.6875 31.40625 19.6875 L 28.9375 19.6875 z M 16.71875 19.78125 L 16.71875 24.03125 L 19.34375 24.03125 C 20.78475 24.03125 21.59375 23.25125 21.59375 21.90625 C 21.59375 20.58825 20.72225 19.78125 19.28125 19.78125 L 16.71875 19.78125 z M 28.9375 24.875 L 28.9375 28.78125 L 31.5625 28.78125 C 33.2325 28.78125 34.125 28.1045 34.125 26.8125 C 34.125 25.5465 33.233 24.875 31.5 24.875 L 28.9375 24.875 z"/>
</svg>
