<?xml version="1.0"?>
<svg xmlns="http://www.w3.org/2000/svg" viewBox="0 0 50 50">
    <path d="M 9.15625 7 C 8.85125 7 8.565 7.137 8.375 7.375 C 8.186 7.614 8.08825 7.92175 8.15625 8.21875 C 8.17325 8.28975 9.8125 15.3745 9.8125 23.1875 C 9.8125 30.8545 4.182 41.42625 4.125 41.53125 C 3.958 41.84225 3.97525 42.2 4.15625 42.5 C 4.33725 42.802 4.648 43 5 43 L 30 43 C 41.223 43 45 28.64175 45 22.09375 C 45 17.02775 42.3035 8.09675 42.1875 7.71875 C 42.0595 7.29675 41.65975 7 41.21875 7 L 9.15625 7 z M 16 19 L 21.15625 19 C 23.81925 19 25.46875 20.53375 25.46875 22.96875 C 25.46875 24.63875 24.60575 26.0175 23.09375 26.5625 L 25.875 32 L 23.28125 32 L 20.78125 26.9375 L 18.28125 26.9375 L 18.28125 32 L 16 32 L 16 19 z M 27.46875 19 L 37.5625 19 L 37.5625 20.96875 L 33.65625 20.96875 L 33.65625 32 L 31.375 32 L 31.375 20.96875 L 27.46875 20.96875 L 27.46875 19 z M 18.28125 20.875 L 18.28125 25.125 L 20.875 25.125 C 22.316 25.125 23.15625 24.345 23.15625 23 C 23.15625 21.682 22.28475 20.875 20.84375 20.875 L 18.28125 20.875 z"/>
</svg>
