{
  "accessors": [
    {
      "bufferView": 2,
      "componentType": 5126,
      "count": 4246,
      "max": [
        0.14172400534152985,
        0.10418699681758881,
        1.8076169490814209
      ],
      "min": [
        -0.1375730037689209,
        -0.19238300621509552,
        1.5117189884185791
      ],
      "type": "VEC3"
    },
    {
      "bufferView": 2,
      "byteOffset": 50952,
      "componentType": 5126,
      "count": 4246,
      "max": [
        0.99995064735412598,
        0.99981635808944702,
        0.99939882755279541
      ],
      "min": [
        -0.99949723482131958,
        -0.9995238184928894,
        -0.99975425004959106
      ],
      "type": "VEC3"
    },
    {
      "bufferView": 3,
      "componentType": 5126,
      "count": 4246,
      "max": [
        0.9999656081199646,
        0.99860697984695435,
        0.99989956617355347,
        1
      ],
      "min": [
        -0.99983376264572144,
        -0.99995660781860352,
        -0.99986863136291504,
        -1
      ],
      "type": "VEC4"
    },
    {
      "bufferView": 1,
      "componentType": 5126,
      "count": 4246,
      "max": [
        0.99658197164535522,
        0.99693500995635986
      ],
      "min": [
        0.00073199998587369919,
        0.00048799999058246613
      ],
      "type": "VEC2"
    },
    {
      "bufferView": 0,
      "componentType": 5125,
      "count": 21657,
      "max": [
        4245
      ],
      "min": [
        0
      ],
      "type": "SCALAR"
    },
    {
      "bufferView": 2,
      "byteOffset": 101904,
      "componentType": 5126,
      "count": 11146,
      "max": [
        0.56396502256393433,
        0.17980900406837463,
        1.1738280057907104
      ],
      "min": [
        -0.56396502256393433,
        -0.35473701357841492,
        -0.0069389999844133854
      ],
      "type": "VEC3"
    },
    {
      "bufferView": 2,
      "byteOffset": 235656,
      "componentType": 5126,
      "count": 11146,
      "max": [
        0.99998772144317627,
        0.99998509883880615,
        0.99995160102844238
      ],
      "min": [
        -0.99998772144317627,
        -0.99960106611251831,
        -0.99990391731262207
      ],
      "type": "VEC3"
    },
    {
      "bufferView": 1,
      "byteOffset": 33968,
      "componentType": 5126,
      "count": 11146,
      "max": [
        0.99804699420928955,
        0.99658799171447754
      ],
      "min": [
        0.004120000172406435,
        0.0014649999793618917
      ],
      "type": "VEC2"
    },
    {
      "bufferView": 0,
      "byteOffset": 86628,
      "componentType": 5125,
      "count": 52833,
      "max": [
        11145
      ],
      "min": [
        0
      ],
      "type": "SCALAR"
    },
    {
      "bufferView": 2,
      "byteOffset": 369408,
      "componentType": 5126,
      "count": 6656,
      "max": [
        0.50878900289535522,
        0.15429699420928955,
        1.6005860567092896
      ],
      "min": [
        -0.50878900289535522,
        -0.23474100232124329,
        0.72412097454071045
      ],
      "type": "VEC3"
    },
    {
      "bufferView": 2,
      "byteOffset": 449280,
      "componentType": 5126,
      "count": 6656,
      "max": [
        0.99943292140960693,
        0.99999701976776123,
        0.99988222122192383
      ],
      "min": [
        -0.99986863136291504,
        -0.99997031688690186,
        -0.9999769926071167
      ],
      "type": "VEC3"
    },
    {
      "bufferView": 3,
      "byteOffset": 67936,
      "componentType": 5126,
      "count": 6656,
      "max": [
        0.99999517202377319,
        0.9999508261680603,
        0.99999535083770752,
        1
      ],
      "min": [
        -1,
        -0.99989491701126099,
        -0.99949061870574951,
        -1
      ],
      "type": "VEC4"
    },
    {
      "bufferView": 1,
      "byteOffset": 123136,
      "componentType": 5126,
      "count": 6656,
      "max": [
        0.99755901098251343,
        0.99843698740005493
      ],
      "min": [
        -0.00065100000938400626,
        0.0039059999398887157
      ],
      "type": "VEC2"
    },
    {
      "bufferView": 0,
      "byteOffset": 297960,
      "componentType": 5125,
      "count": 29949,
      "max": [
        6655
      ],
      "min": [
        0
      ],
      "type": "SCALAR"
    }
  ],
  "asset": {
    "extras": {
      "author": "danielmclogan (https://sketchfab.com/danielmclogan)",
      "license": "CC-BY-4.0 (http://creativecommons.org/licenses/by/4.0/)",
      "source": "https://sketchfab.com/3d-models/stormtrooper-037d8036c2c741cfa7ab926750ce4240",
      "title": "StormTrooper"
    },
    "generator": "Sketchfab-8.47.0",
    "version": "2.0"
  },
  "bufferViews": [
    {
      "buffer": 0,
      "byteLength": 417756,
      "byteOffset": 0,
      "name": "floatBufferViews",
      "target": 34963
    },
    {
      "buffer": 0,
      "byteLength": 176384,
      "byteOffset": 417756,
      "byteStride": 8,
      "name": "floatBufferViews",
      "target": 34962
    },
    {
      "buffer": 0,
      "byteLength": 529152,
      "byteOffset": 594140,
      "byteStride": 12,
      "name": "floatBufferViews",
      "target": 34962
    },
    {
      "buffer": 0,
      "byteLength": 174432,
      "byteOffset": 1123292,
      "byteStride": 16,
      "name": "floatBufferViews",
      "target": 34962
    }
  ],
  "buffers": [
    {
      "byteLength": 1297724,
      "uri": "scene.bin"
    }
  ],
  "images": [
    {
      "uri": "textures/4_Helmet_M_baseColor.png"
    },
    {
      "uri": "textures/4_Helmet_M_normal.png"
    },
    {
      "uri": "textures/4_LowerBody_M_baseColor.png"
    },
    {
      "uri": "textures/4_UpperBody_M_baseColor.png"
    },
    {
      "uri": "textures/4_UpperBody_M_normal.png"
    }
  ],
  "materials": [
    {
      "doubleSided": true,
      "name": "4_Helmet_M",
      "normalTexture": {
        "index": 1,
        "scale": 1,
        "texCoord": 0
      },
      "pbrMetallicRoughness": {
        "baseColorFactor": [
          1,
          1,
          1,
          1
        ],
        "baseColorTexture": {
          "index": 0,
          "texCoord": 0
        },
        "metallicFactor": 0,
        "roughnessFactor": 0.59999999999999998
      }
    },
    {
      "doubleSided": true,
      "name": "4_LowerBody_M",
      "pbrMetallicRoughness": {
        "baseColorFactor": [
          1,
          1,
          1,
          1
        ],
        "baseColorTexture": {
          "index": 2,
          "texCoord": 0
        },
        "metallicFactor": 0,
        "roughnessFactor": 0.59999999999999998
      }
    },
    {
      "doubleSided": true,
      "name": "4_UpperBody_M",
      "normalTexture": {
        "index": 4,
        "scale": 1,
        "texCoord": 0
      },
      "pbrMetallicRoughness": {
        "baseColorFactor": [
          1,
          1,
          1,
          1
        ],
        "baseColorTexture": {
          "index": 3,
          "texCoord": 0
        },
        "metallicFactor": 0,
        "roughnessFactor": 0.59999999999999998
      }
    }
  ],
  "meshes": [
    {
      "primitives": [
        {
          "attributes": {
            "NORMAL": 1,
            "POSITION": 0,
            "TANGENT": 2,
            "TEXCOORD_0": 3
          },
          "indices": 4,
          "material": 0,
          "mode": 4
        }
      ]
    },
    {
      "primitives": [
        {
          "attributes": {
            "NORMAL": 6,
            "POSITION": 5,
            "TEXCOORD_0": 7
          },
          "indices": 8,
          "material": 1,
          "mode": 4
        }
      ]
    },
    {
      "primitives": [
        {
          "attributes": {
            "NORMAL": 10,
            "POSITION": 9,
            "TANGENT": 11,
            "TEXCOORD_0": 12
          },
          "indices": 13,
          "material": 2,
          "mode": 4
        }
      ]
    }
  ],
  "nodes": [
    {
      "children": [
        1
      ],
      "name": "RootNode (gltf orientation matrix)",
      "rotation": [
        -0.70710678118654746,
        -0,
        -0,
        0.70710678118654757
      ]
    },
    {
      "children": [
        2
      ],
      "name": "RootNode (model correction matrix)"
    },
    {
      "children": [
        3,
        4,
        5
      ],
      "name": "StormTrooper.obj.cleaner.materialmerger.gles"
    },
    {
      "mesh": 0,
      "name": ""
    },
    {
      "mesh": 1,
      "name": ""
    },
    {
      "mesh": 2,
      "name": ""
    }
  ],
  "samplers": [
    {
      "magFilter": 9729,
      "minFilter": 9987,
      "wrapS": 10497,
      "wrapT": 10497
    }
  ],
  "scene": 0,
  "scenes": [
    {
      "name": "OSG_Scene",
      "nodes": [
        0
      ]
    }
  ],
  "textures": [
    {
      "sampler": 0,
      "source": 0
    },
    {
      "sampler": 0,
      "source": 1
    },
    {
      "sampler": 0,
      "source": 2
    },
    {
      "sampler": 0,
      "source": 3
    },
    {
      "sampler": 0,
      "source": 4
    }
  ]
}

